<svg xmlns="http://www.w3.org/2000/svg" width="1150" height="1150" viewBox="0 0 1150 1150" version="1.1"><path d="M 396 162 C 396 162.550, 394.902 163, 393.559 163 C 392.216 163, 390.840 163.450, 390.500 164 C 390.160 164.550, 389.009 165, 387.941 165 C 386.873 165, 386 165.450, 386 166 C 386 166.550, 385.100 167, 384 167 C 382.900 167, 382 167.450, 382 168 C 382 168.550, 381.415 169, 380.700 169 C 379.003 169, 357 191.003, 357 192.700 C 357 193.415, 356.550 194, 356 194 C 355.450 194, 355 194.900, 355 196 C 355 197.100, 354.550 198, 354 198 C 353.450 198, 353 198.873, 353 199.941 C 353 201.009, 352.550 202.160, 352 202.500 C 351.450 202.840, 351 204.216, 351 205.559 C 351 206.902, 350.574 208, 350.052 208 C 349.531 208, 348.969 210.363, 348.802 213.250 C 348.529 217.996, 348.260 218.532, 346 218.835 C 344.625 219.019, 343.072 219.581, 342.550 220.085 C 342.028 220.588, 340.592 221, 339.359 221 C 338.126 221, 336.840 221.450, 336.500 222 C 336.160 222.550, 334.810 223, 333.500 223 C 332.190 223, 330.840 223.450, 330.500 224 C 330.160 224.550, 328.810 225, 327.500 225 C 326.190 225, 324.840 225.450, 324.500 226 C 324.160 226.550, 322.810 227, 321.500 227 C 320.190 227, 318.840 227.450, 318.500 228 C 318.160 228.550, 316.810 229, 315.500 229 C 314.190 229, 312.840 229.450, 312.500 230 C 312.160 230.550, 310.810 231, 309.500 231 C 308.190 231, 306.840 231.450, 306.500 232 C 306.160 232.550, 304.810 233, 303.500 233 C 302.190 233, 300.840 233.450, 300.500 234 C 300.160 234.550, 298.810 235, 297.500 235 C 296.190 235, 294.840 235.450, 294.500 236 C 294.160 236.550, 292.810 237, 291.500 237 C 290.190 237, 288.840 237.450, 288.500 238 C 288.160 238.550, 286.810 239, 285.500 239 C 284.190 239, 282.840 239.450, 282.500 240 C 282.160 240.550, 280.810 241, 279.500 241 C 278.190 241, 276.840 241.450, 276.500 242 C 276.160 242.550, 275.009 243, 273.941 243 C 272.873 243, 272 243.450, 272 244 C 272 244.550, 270.902 245, 269.559 245 C 268.216 245, 266.840 245.450, 266.500 246 C 266.160 246.550, 264.109 247, 261.941 247 C 259.773 247, 258 247.450, 258 248 C 258 248.550, 257.100 249, 256 249 C 254.900 249, 254 249.450, 254 250 C 254 250.550, 252.902 251, 251.559 251 C 250.216 251, 248.840 251.450, 248.500 252 C 248.160 252.550, 246.810 253, 245.500 253 C 244.190 253, 242.840 253.450, 242.500 254 C 242.160 254.550, 240.810 255, 239.500 255 C 238.190 255, 236.840 255.450, 236.500 256 C 236.160 256.550, 234.810 257, 233.500 257 C 232.190 257, 230.840 257.450, 230.500 258 C 230.160 258.550, 228.810 259, 227.500 259 C 226.190 259, 224.840 259.450, 224.500 260 C 224.160 260.550, 222.810 261, 221.500 261 C 220.190 261, 218.840 261.450, 218.500 262 C 218.160 262.550, 216.810 263, 215.500 263 C 214.190 263, 212.840 263.450, 212.500 264 C 212.160 264.550, 210.810 265, 209.500 265 C 208.190 265, 206.840 265.450, 206.500 266 C 206.160 266.550, 204.810 267, 203.500 267 C 202.190 267, 200.840 267.450, 200.500 268 C 200.160 268.550, 198.810 269, 197.500 269 C 196.190 269, 194.840 269.450, 194.500 270 C 194.160 270.550, 192.810 271, 191.500 271 C 190.190 271, 188.840 271.450, 188.500 272 C 188.160 272.550, 186.810 273, 185.500 273 C 184.190 273, 182.840 273.450, 182.500 274 C 182.160 274.550, 180.810 275, 179.500 275 C 178.190 275, 176.840 275.450, 176.500 276 C 176.160 276.550, 174.810 277, 173.500 277 C 172.190 277, 170.840 277.450, 170.500 278 C 170.160 278.550, 168.810 279, 167.500 279 C 166.190 279, 164.840 279.450, 164.500 280 C 164.160 280.550, 162.810 281, 161.500 281 C 160.190 281, 158.840 281.450, 158.500 282 C 158.160 282.550, 156.810 283, 155.500 283 C 154.190 283, 152.840 283.450, 152.500 284 C 152.160 284.550, 150.810 285, 149.500 285 C 148.190 285, 146.840 285.450, 146.500 286 C 146.160 286.550, 144.810 287, 143.500 287 C 142.190 287, 140.840 287.450, 140.500 288 C 140.160 288.550, 138.810 289, 137.500 289 C 136.190 289, 134.840 289.450, 134.500 290 C 134.160 290.550, 132.810 291, 131.500 291 C 130.190 291, 128.840 291.450, 128.500 292 C 128.160 292.550, 127.009 293, 125.941 293 C 124.873 293, 124 293.450, 124 294 C 124 294.550, 123.100 295, 122 295 C 120.900 295, 120 295.450, 120 296 C 120 296.550, 119.417 297, 118.704 297 C 117.013 297, 93 321.013, 93 322.704 C 93 323.417, 92.550 324, 92 324 C 91.450 324, 91 324.900, 91 326 C 91 327.100, 90.550 328, 90 328 C 89.450 328, 89 328.873, 89 329.941 C 89 331.009, 88.550 332.160, 88 332.500 C 87.450 332.840, 87 334.216, 87 335.559 C 87 336.902, 86.550 338, 86 338 C 85.362 338, 85 346.333, 85 361 C 85 375.667, 85.362 384, 86 384 C 86.550 384, 87 385.800, 87 388 C 87 390.200, 87.450 392, 88 392 C 88.550 392, 89 393.098, 89 394.441 C 89 395.784, 89.450 397.160, 90 397.500 C 90.550 397.840, 91 399.190, 91 400.500 C 91 401.810, 91.450 403.160, 92 403.500 C 92.550 403.840, 93 405.190, 93 406.500 C 93 407.810, 93.450 409.160, 94 409.500 C 94.550 409.840, 95 411.190, 95 412.500 C 95 413.810, 95.450 415.160, 96 415.500 C 96.550 415.840, 97 416.991, 97 418.059 C 97 419.127, 97.450 420, 98 420 C 98.550 420, 99 421.098, 99 422.441 C 99 423.784, 99.450 425.160, 100 425.500 C 100.550 425.840, 101 427.190, 101 428.500 C 101 429.810, 101.450 431.160, 102 431.500 C 102.550 431.840, 103 433.190, 103 434.500 C 103 435.810, 103.450 437.160, 104 437.500 C 104.550 437.840, 105 439.190, 105 440.500 C 105 441.810, 105.450 443.160, 106 443.500 C 106.550 443.840, 107 445.190, 107 446.500 C 107 447.810, 107.450 449.160, 108 449.500 C 108.550 449.840, 109 451.190, 109 452.500 C 109 453.810, 109.450 455.160, 110 455.500 C 110.550 455.840, 111 457.190, 111 458.500 C 111 459.810, 111.450 461.160, 112 461.500 C 112.550 461.840, 113 463.190, 113 464.500 C 113 465.810, 113.450 467.160, 114 467.500 C 114.550 467.840, 115 468.991, 115 470.059 C 115 471.127, 115.450 472, 116 472 C 116.550 472, 117 473.098, 117 474.441 C 117 475.784, 117.450 477.160, 118 477.500 C 118.550 477.840, 119 479.190, 119 480.500 C 119 481.810, 119.450 483.160, 120 483.500 C 120.550 483.840, 121 485.190, 121 486.500 C 121 487.810, 121.450 489.160, 122 489.500 C 122.550 489.840, 123 491.190, 123 492.500 C 123 493.810, 123.450 495.160, 124 495.500 C 124.550 495.840, 125 497.190, 125 498.500 C 125 499.810, 125.450 501.160, 126 501.500 C 126.550 501.840, 127 503.190, 127 504.500 C 127 505.810, 127.450 507.160, 128 507.500 C 128.550 507.840, 129 508.991, 129 510.059 C 129 511.127, 129.450 512, 130 512 C 130.550 512, 131 513.800, 131 516 C 131 518.200, 131.450 520, 132 520 C 132.550 520, 133 520.900, 133 522 C 133 523.100, 133.450 524, 134 524 C 134.550 524, 135 525.098, 135 526.441 C 135 527.784, 135.450 529.160, 136 529.500 C 136.550 529.840, 137 531.190, 137 532.500 C 137 533.810, 137.450 535.160, 138 535.500 C 138.550 535.840, 139 537.190, 139 538.500 C 139 539.810, 139.450 541.160, 140 541.500 C 140.550 541.840, 141 543.190, 141 544.500 C 141 545.810, 141.450 547.160, 142 547.500 C 142.550 547.840, 143 549.190, 143 550.500 C 143 551.810, 143.450 553.160, 144 553.500 C 144.550 553.840, 145 555.190, 145 556.500 C 145 557.810, 145.450 559.160, 146 559.500 C 146.550 559.840, 147 561.190, 147 562.500 C 147 563.810, 147.450 565.160, 148 565.500 C 148.550 565.840, 149 566.991, 149 568.059 C 149 569.127, 149.450 570, 150 570 C 150.550 570, 151 571.800, 151 574 C 151 576.200, 151.450 578, 152 578 C 152.550 578, 153 578.900, 153 580 C 153 581.100, 153.450 582, 154 582 C 154.550 582, 155 583.098, 155 584.441 C 155 585.784, 155.450 587.160, 156 587.500 C 156.550 587.840, 157 589.190, 157 590.500 C 157 591.810, 157.450 593.160, 158 593.500 C 158.550 593.840, 159 595.190, 159 596.500 C 159 597.810, 159.450 599.160, 160 599.500 C 160.550 599.840, 161 601.190, 161 602.500 C 161 603.810, 161.450 605.160, 162 605.500 C 162.550 605.840, 163 607.190, 163 608.500 C 163 609.810, 163.450 611.160, 164 611.500 C 164.550 611.840, 165 613.190, 165 614.500 C 165 615.810, 165.450 617.160, 166 617.500 C 166.550 617.840, 167 619.190, 167 620.500 C 167 621.810, 167.450 623.160, 168 623.500 C 168.550 623.840, 169 625.190, 169 626.500 C 169 627.810, 169.450 629.160, 170 629.500 C 170.550 629.840, 171 630.991, 171 632.059 C 171 633.127, 171.450 634, 172 634 C 172.550 634, 173 635.098, 173 636.441 C 173 637.784, 173.450 639.160, 174 639.500 C 174.550 639.840, 175 641.190, 175 642.500 C 175 643.810, 175.450 645.160, 176 645.500 C 176.550 645.840, 177 647.190, 177 648.500 C 177 649.810, 177.450 651.160, 178 651.500 C 178.550 651.840, 179 653.190, 179 654.500 C 179 655.810, 179.450 657.160, 180 657.500 C 180.550 657.840, 181 659.190, 181 660.500 C 181 661.810, 181.450 663.160, 182 663.500 C 182.550 663.840, 183 665.190, 183 666.500 C 183 667.810, 183.450 669.160, 184 669.500 C 184.550 669.840, 185 671.190, 185 672.500 C 185 673.810, 185.450 675.160, 186 675.500 C 186.550 675.840, 187 676.991, 187 678.059 C 187 679.127, 187.450 680, 188 680 C 188.550 680, 189 681.098, 189 682.441 C 189 683.784, 189.450 685.160, 190 685.500 C 190.550 685.840, 191 687.891, 191 690.059 C 191 692.227, 191.450 694, 192 694 C 192.550 694, 193 694.900, 193 696 C 193 697.100, 193.450 698, 194 698 C 194.550 698, 195 699.098, 195 700.441 C 195 701.784, 195.450 703.160, 196 703.500 C 196.550 703.840, 197 705.190, 197 706.500 C 197 707.810, 197.450 709.160, 198 709.500 C 198.550 709.840, 199 711.190, 199 712.500 C 199 713.810, 199.450 715.160, 200 715.500 C 200.550 715.840, 201 717.190, 201 718.500 C 201 719.810, 201.450 721.160, 202 721.500 C 202.550 721.840, 203 723.190, 203 724.500 C 203 725.810, 203.450 727.160, 204 727.500 C 204.550 727.840, 205 729.190, 205 730.500 C 205 731.810, 205.450 733.160, 206 733.500 C 206.550 733.840, 207 735.190, 207 736.500 C 207 737.810, 207.396 739.127, 207.881 739.426 C 208.365 739.726, 208.971 741.067, 209.227 742.408 C 209.628 744.507, 204.924 749.607, 175.347 779.139 C 156.456 798, 141 813.902, 141 814.477 C 141 815.052, 114 842.509, 81 875.492 C 48 908.475, 21 936.032, 21 936.730 C 21 937.429, 20.550 938, 20 938 C 19.450 938, 19 938.900, 19 940 C 19 941.100, 18.550 942, 18 942 C 17.381 942, 17 947.333, 17 956 C 17 964.667, 17.381 970, 18 970 C 18.550 970, 19 970.611, 19 971.357 C 19 973.124, 28.876 983, 30.643 983 C 31.389 983, 32 983.450, 32 984 C 32 984.665, 213 985, 573 985 C 933 985, 1114 984.665, 1114 984 C 1114 983.450, 1115.013 982.990, 1116.250 982.978 C 1117.574 982.966, 1120.662 980.878, 1123.750 977.908 L 1129 972.858 1129 955.429 C 1129 944.476, 1128.628 938, 1128 938 C 1127.450 938, 1127 937.422, 1127 936.717 C 1127 936.011, 1111.250 919.707, 1092 900.486 C 1072.750 881.265, 1057 865.020, 1057 864.387 C 1057 862.897, 1049.116 855, 1047.629 855 C 1045.751 855, 936.386 744.826, 937.750 744.308 C 938.437 744.047, 939 742.547, 939 740.976 C 939 739.404, 939.450 737.840, 940 737.500 C 940.550 737.160, 941 735.810, 941 734.500 C 941 733.190, 941.450 731.840, 942 731.500 C 942.550 731.160, 943 729.810, 943 728.500 C 943 727.190, 943.450 725.840, 944 725.500 C 944.550 725.160, 945 723.810, 945 722.500 C 945 721.190, 945.450 719.840, 946 719.500 C 946.550 719.160, 947 717.810, 947 716.500 C 947 715.190, 947.450 713.840, 948 713.500 C 948.550 713.160, 949 711.784, 949 710.441 C 949 709.098, 949.450 708, 950 708 C 950.550 708, 951 707.127, 951 706.059 C 951 704.991, 951.450 703.840, 952 703.500 C 952.550 703.160, 953 701.810, 953 700.500 C 953 699.190, 953.450 697.840, 954 697.500 C 954.550 697.160, 955 695.810, 955 694.500 C 955 693.190, 955.450 691.840, 956 691.500 C 956.550 691.160, 957 689.810, 957 688.500 C 957 687.190, 957.450 685.840, 958 685.500 C 958.550 685.160, 959 683.810, 959 682.500 C 959 681.190, 959.450 679.840, 960 679.500 C 960.550 679.160, 961 677.810, 961 676.500 C 961 675.190, 961.450 673.840, 962 673.500 C 962.550 673.160, 963 671.810, 963 670.500 C 963 669.190, 963.450 667.840, 964 667.500 C 964.550 667.160, 965 665.810, 965 664.500 C 965 663.190, 965.450 661.840, 966 661.500 C 966.550 661.160, 967 659.784, 967 658.441 C 967 657.098, 967.450 656, 968 656 C 968.550 656, 969 655.127, 969 654.059 C 969 652.991, 969.450 651.840, 970 651.500 C 970.550 651.160, 971 649.810, 971 648.500 C 971 647.190, 971.450 645.840, 972 645.500 C 972.550 645.160, 973 643.810, 973 642.500 C 973 641.190, 973.450 639.840, 974 639.500 C 974.550 639.160, 975 637.810, 975 636.500 C 975 635.190, 975.450 633.840, 976 633.500 C 976.550 633.160, 977 631.810, 977 630.500 C 977 629.190, 977.450 627.840, 978 627.500 C 978.550 627.160, 979 625.810, 979 624.500 C 979 623.190, 979.450 621.840, 980 621.500 C 980.550 621.160, 981 619.810, 981 618.500 C 981 617.190, 981.450 615.840, 982 615.500 C 982.550 615.160, 983 613.784, 983 612.441 C 983 611.098, 983.450 610, 984 610 C 984.550 610, 985 609.127, 985 608.059 C 985 606.991, 985.450 605.840, 986 605.500 C 986.550 605.160, 987 603.810, 987 602.500 C 987 601.190, 987.450 599.840, 988 599.500 C 988.550 599.160, 989 597.810, 989 596.500 C 989 595.190, 989.450 593.840, 990 593.500 C 990.550 593.160, 991 591.810, 991 590.500 C 991 589.190, 991.450 587.840, 992 587.500 C 992.550 587.160, 993 585.810, 993 584.500 C 993 583.190, 993.450 581.840, 994 581.500 C 994.550 581.160, 995 579.810, 995 578.500 C 995 577.190, 995.450 575.840, 996 575.500 C 996.550 575.160, 997 573.810, 997 572.500 C 997 571.190, 997.450 569.840, 998 569.500 C 998.550 569.160, 999 567.784, 999 566.441 C 999 565.098, 999.450 564, 1000 564 C 1000.550 564, 1001 563.127, 1001 562.059 C 1001 560.991, 1001.450 559.840, 1002 559.500 C 1002.550 559.160, 1003 557.810, 1003 556.500 C 1003 555.190, 1003.450 553.840, 1004 553.500 C 1004.550 553.160, 1005 551.810, 1005 550.500 C 1005 549.190, 1005.450 547.840, 1006 547.500 C 1006.550 547.160, 1007 545.810, 1007 544.500 C 1007 543.190, 1007.450 541.840, 1008 541.500 C 1008.550 541.160, 1009 539.810, 1009 538.500 C 1009 537.190, 1009.450 535.840, 1010 535.500 C 1010.550 535.160, 1011 533.810, 1011 532.500 C 1011 531.190, 1011.450 529.840, 1012 529.500 C 1012.550 529.160, 1013 527.810, 1013 526.500 C 1013 525.190, 1013.450 523.840, 1014 523.500 C 1014.550 523.160, 1015 521.784, 1015 520.441 C 1015 519.098, 1015.450 518, 1016 518 C 1016.550 518, 1017 517.100, 1017 516 C 1017 514.900, 1017.450 514, 1018 514 C 1018.550 514, 1019 512.200, 1019 510 C 1019 507.800, 1019.450 506, 1020 506 C 1020.550 506, 1021 505.127, 1021 504.059 C 1021 502.991, 1021.450 501.840, 1022 501.500 C 1022.550 501.160, 1023 499.810, 1023 498.500 C 1023 497.190, 1023.450 495.840, 1024 495.500 C 1024.550 495.160, 1025 493.810, 1025 492.500 C 1025 491.190, 1025.450 489.840, 1026 489.500 C 1026.550 489.160, 1027 487.810, 1027 486.500 C 1027 485.190, 1027.450 483.840, 1028 483.500 C 1028.550 483.160, 1029 481.810, 1029 480.500 C 1029 479.190, 1029.450 477.840, 1030 477.500 C 1030.550 477.160, 1031 475.784, 1031 474.441 C 1031 473.098, 1031.450 472, 1032 472 C 1032.550 472, 1033 471.127, 1033 470.059 C 1033 468.991, 1033.450 467.840, 1034 467.500 C 1034.550 467.160, 1035 465.810, 1035 464.500 C 1035 463.190, 1035.450 461.840, 1036 461.500 C 1036.550 461.160, 1037 459.810, 1037 458.500 C 1037 457.190, 1037.450 455.840, 1038 455.500 C 1038.550 455.160, 1039 453.810, 1039 452.500 C 1039 451.190, 1039.450 449.840, 1040 449.500 C 1040.550 449.160, 1041 447.810, 1041 446.500 C 1041 445.190, 1041.450 443.840, 1042 443.500 C 1042.550 443.160, 1043 441.810, 1043 440.500 C 1043 439.190, 1043.450 437.840, 1044 437.500 C 1044.550 437.160, 1045 435.810, 1045 434.500 C 1045 433.190, 1045.450 431.840, 1046 431.500 C 1046.550 431.160, 1047 429.810, 1047 428.500 C 1047 427.190, 1047.450 425.840, 1048 425.500 C 1048.550 425.160, 1049 423.784, 1049 422.441 C 1049 421.098, 1049.450 420, 1050 420 C 1050.550 420, 1051 419.127, 1051 418.059 C 1051 416.991, 1051.450 415.840, 1052 415.500 C 1052.550 415.160, 1053 413.810, 1053 412.500 C 1053 411.190, 1053.450 409.840, 1054 409.500 C 1054.550 409.160, 1055 407.810, 1055 406.500 C 1055 405.190, 1055.450 403.840, 1056 403.500 C 1056.550 403.160, 1057 401.810, 1057 400.500 C 1057 399.190, 1057.450 397.840, 1058 397.500 C 1058.550 397.160, 1059 395.784, 1059 394.441 C 1059 393.098, 1059.450 392, 1060 392 C 1060.550 392, 1061 390.200, 1061 388 C 1061 385.800, 1061.450 384, 1062 384 C 1062.639 384, 1063 375.333, 1063 360 C 1063 344.667, 1062.639 336, 1062 336 C 1061.450 336, 1061 335.100, 1061 334 C 1061 332.900, 1060.550 332, 1060 332 C 1059.450 332, 1059 330.945, 1059 329.655 C 1059 328.365, 1058.100 326.495, 1057 325.500 C 1055.900 324.505, 1055 323.177, 1055 322.549 C 1055 320.964, 1030.891 297, 1029.296 297 C 1028.583 297, 1028 296.550, 1028 296 C 1028 295.450, 1027.100 295, 1026 295 C 1024.900 295, 1024 294.550, 1024 294 C 1024 293.450, 1023.127 293, 1022.059 293 C 1020.991 293, 1019.840 292.550, 1019.500 292 C 1019.160 291.450, 1017.810 291, 1016.500 291 C 1015.190 291, 1013.840 290.550, 1013.500 290 C 1013.160 289.450, 1011.810 289, 1010.500 289 C 1009.190 289, 1007.840 288.550, 1007.500 288 C 1007.160 287.450, 1005.810 287, 1004.500 287 C 1003.190 287, 1001.840 286.550, 1001.500 286 C 1001.160 285.450, 999.810 285, 998.500 285 C 997.190 285, 995.840 284.550, 995.500 284 C 995.160 283.450, 993.810 283, 992.500 283 C 991.190 283, 989.840 282.550, 989.500 282 C 989.160 281.450, 987.810 281, 986.500 281 C 985.190 281, 983.840 280.550, 983.500 280 C 983.160 279.450, 981.810 279, 980.500 279 C 979.190 279, 977.840 278.550, 977.500 278 C 977.160 277.450, 975.810 277, 974.500 277 C 973.190 277, 971.840 276.550, 971.500 276 C 971.160 275.450, 969.810 275, 968.500 275 C 967.190 275, 965.840 274.550, 965.500 274 C 965.160 273.450, 963.810 273, 962.500 273 C 961.190 273, 959.840 272.550, 959.500 272 C 959.160 271.450, 957.810 271, 956.500 271 C 955.190 271, 953.840 270.550, 953.500 270 C 953.160 269.450, 951.810 269, 950.500 269 C 949.190 269, 947.840 268.550, 947.500 268 C 947.160 267.450, 945.810 267, 944.500 267 C 943.190 267, 941.840 266.550, 941.500 266 C 941.160 265.450, 939.810 265, 938.500 265 C 937.190 265, 935.840 264.550, 935.500 264 C 935.160 263.450, 933.810 263, 932.500 263 C 931.190 263, 929.840 262.550, 929.500 262 C 929.160 261.450, 927.810 261, 926.500 261 C 925.190 261, 923.840 260.550, 923.500 260 C 923.160 259.450, 921.810 259, 920.500 259 C 919.190 259, 917.840 258.550, 917.500 258 C 917.160 257.450, 915.810 257, 914.500 257 C 913.190 257, 911.840 256.550, 911.500 256 C 911.160 255.450, 909.810 255, 908.500 255 C 907.190 255, 905.840 254.550, 905.500 254 C 905.160 253.450, 903.810 253, 902.500 253 C 901.190 253, 899.840 252.550, 899.500 252 C 899.160 251.450, 897.810 251, 896.500 251 C 895.190 251, 893.840 250.550, 893.500 250 C 893.160 249.450, 891.810 249, 890.500 249 C 889.190 249, 887.840 248.550, 887.500 248 C 887.160 247.450, 885.810 247, 884.500 247 C 883.190 247, 881.840 246.550, 881.500 246 C 881.160 245.450, 879.810 245, 878.500 245 C 877.190 245, 875.840 244.550, 875.500 244 C 875.160 243.450, 873.810 243, 872.500 243 C 871.190 243, 869.840 242.550, 869.500 242 C 869.160 241.450, 867.810 241, 866.500 241 C 865.190 241, 863.840 240.550, 863.500 240 C 863.160 239.450, 861.810 239, 860.500 239 C 859.190 239, 857.840 238.550, 857.500 238 C 857.160 237.450, 855.810 237, 854.500 237 C 853.190 237, 851.840 236.550, 851.500 236 C 851.160 235.450, 849.810 235, 848.500 235 C 847.190 235, 845.840 234.550, 845.500 234 C 845.160 233.450, 843.810 233, 842.500 233 C 841.190 233, 839.840 232.550, 839.500 232 C 839.160 231.450, 837.810 231, 836.500 231 C 835.190 231, 833.840 230.550, 833.500 230 C 833.160 229.450, 831.810 229, 830.500 229 C 829.190 229, 827.840 228.550, 827.500 228 C 827.160 227.450, 825.810 227, 824.500 227 C 823.190 227, 821.840 226.550, 821.500 226 C 821.160 225.450, 819.810 225, 818.500 225 C 817.190 225, 815.840 224.550, 815.500 224 C 815.160 223.450, 813.810 223, 812.500 223 C 811.190 223, 809.840 222.550, 809.500 222 C 809.160 221.450, 807.784 221, 806.441 221 C 805.098 221, 804 220.581, 804 220.070 C 804 219.558, 802.987 218.995, 801.750 218.820 C 800.219 218.602, 799.393 217.701, 799.165 216 C 798.981 214.625, 798.419 213.073, 797.915 212.550 C 797.412 212.028, 797 210.592, 797 209.359 C 797 208.126, 796.550 206.840, 796 206.500 C 795.450 206.160, 795 204.810, 795 203.500 C 795 202.190, 794.550 200.840, 794 200.500 C 793.450 200.160, 793 199.009, 793 197.941 C 793 196.873, 792.550 196, 792 196 C 791.450 196, 791 195.208, 791 194.241 C 791 193.273, 790.100 191.919, 789 191.232 C 787.900 190.545, 787 189.389, 787 188.664 C 787 186.992, 773.079 173, 771.416 173 C 770.735 173, 769.042 171.650, 767.653 170 C 766.265 168.350, 764.425 167, 763.565 167 C 762.704 167, 762 166.550, 762 166 C 762 165.450, 761.127 165, 760.059 165 C 758.991 165, 757.840 164.550, 757.500 164 C 757.160 163.450, 755.784 163, 754.441 163 C 753.098 163, 752 162.550, 752 162 C 752 161.337, 692 161, 574 161 C 456 161, 396 161.337, 396 162 M 399 168.918 C 398.175 169.359, 394.010 171.355, 389.745 173.354 C 372.111 181.619, 356.064 203.371, 356.015 219.080 L 356 223.660 342.750 227.950 C 335.462 230.309, 328.600 232.612, 327.500 233.068 C 326.400 233.524, 322.350 234.879, 318.500 236.080 C 314.650 237.280, 310.600 238.624, 309.500 239.065 C 308.400 239.507, 305.700 240.410, 303.500 241.072 C 301.300 241.735, 298.600 242.640, 297.500 243.083 C 296.400 243.526, 291.675 245.215, 287 246.837 C 273.636 251.472, 271.615 252.211, 269.764 253.134 C 268.809 253.610, 267.103 254, 265.974 254 C 264.844 254, 262.251 254.817, 260.210 255.815 C 258.170 256.813, 250.425 259.560, 243 261.918 C 235.575 264.277, 228.719 266.610, 227.764 267.103 C 226.809 267.596, 225.211 268, 224.214 268 C 223.216 268, 221.972 268.369, 221.450 268.819 C 220.927 269.270, 215.775 271.124, 210 272.939 C 204.225 274.754, 198.600 276.621, 197.500 277.088 C 196.400 277.555, 181.179 282.686, 163.675 288.491 C 146.172 294.297, 129.072 300.444, 125.675 302.152 C 117.248 306.389, 102.385 321.256, 98.144 329.691 C 92.459 340.997, 92.030 343.181, 92.015 360.929 C 92.007 369.965, 92.415 378.740, 92.921 380.429 C 96.695 393.004, 102.414 410.340, 104.161 414.500 C 107.075 421.435, 107.456 422.503, 110.061 431 C 111.326 435.125, 112.729 438.927, 113.180 439.450 C 113.631 439.972, 114 441.216, 114 442.214 C 114 443.211, 114.399 444.809, 114.887 445.764 C 115.375 446.719, 117.215 451.775, 118.977 457 C 120.738 462.225, 125.235 475.275, 128.970 486 C 132.705 496.725, 136.222 506.850, 136.786 508.500 C 137.350 510.150, 138.358 513.075, 139.026 515 C 139.694 516.925, 143.362 527.725, 147.178 539 C 150.995 550.275, 154.991 561.408, 156.058 563.739 C 157.126 566.071, 158 569.018, 158 570.289 C 158 571.560, 158.413 573.027, 158.918 573.550 C 159.423 574.072, 163.884 586.425, 168.833 601 C 173.781 615.575, 181.424 637.850, 185.816 650.500 C 190.209 663.150, 194.783 676.425, 195.982 680 C 197.180 683.575, 198.625 687.850, 199.193 689.500 C 199.761 691.150, 201.997 697.675, 204.162 704 C 206.326 710.325, 208.472 716.400, 208.930 717.500 C 209.387 718.600, 210.798 722.875, 212.065 727 C 213.332 731.125, 215.212 736.222, 216.243 738.326 C 217.275 740.430, 217.979 743.288, 217.809 744.676 C 217.476 747.394, 196.540 768.945, 88.855 877.418 C 42.123 924.492, 28.646 938.629, 26.605 942.717 C 24.414 947.104, 24.006 949.250, 24.035 956.217 C 24.055 960.827, 24.609 965.432, 25.285 966.602 C 27.558 970.536, 31.687 974.787, 34.798 976.395 C 37.635 977.862, 83.771 977.999, 572.700 977.985 C 1010.837 977.973, 1108.179 977.733, 1111.259 976.661 C 1113.327 975.941, 1116.590 973.961, 1118.509 972.261 L 1122 969.171 1122 956.536 C 1122 947.605, 1121.586 943.099, 1120.587 941.168 C 1119.459 938.986, 1092.956 911.765, 1047 865.586 C 1045.075 863.651, 1017.415 836.186, 985.532 804.552 C 939.980 759.354, 927.826 746.774, 928.782 745.818 C 929.452 745.148, 930 743.592, 930 742.359 C 930 741.126, 930.450 739.840, 931 739.500 C 931.550 739.160, 932 737.810, 932 736.500 C 932 735.190, 932.450 733.840, 933 733.500 C 933.550 733.160, 934 731.810, 934 730.500 C 934 729.190, 934.450 727.840, 935 727.500 C 935.550 727.160, 936 725.810, 936 724.500 C 936 723.190, 936.450 721.840, 937 721.500 C 937.550 721.160, 938 719.810, 938 718.500 C 938 717.190, 938.450 715.840, 939 715.500 C 939.550 715.160, 940 713.810, 940 712.500 C 940 711.190, 940.450 709.840, 941 709.500 C 941.550 709.160, 942 708.022, 942 706.971 C 942 705.921, 942.900 703.458, 944 701.500 C 945.100 699.542, 946 697.079, 946 696.029 C 946 694.978, 946.450 693.840, 947 693.500 C 947.550 693.160, 948 691.810, 948 690.500 C 948 689.190, 948.450 687.840, 949 687.500 C 949.550 687.160, 950 685.810, 950 684.500 C 950 683.190, 950.450 681.840, 951 681.500 C 951.550 681.160, 952 679.810, 952 678.500 C 952 677.190, 952.450 675.840, 953 675.500 C 953.550 675.160, 954 673.810, 954 672.500 C 954 671.190, 954.450 669.840, 955 669.500 C 955.550 669.160, 956 667.810, 956 666.500 C 956 665.190, 956.450 663.840, 957 663.500 C 957.550 663.160, 958 661.810, 958 660.500 C 958 659.190, 958.450 657.840, 959 657.500 C 959.550 657.160, 960 656.022, 960 654.971 C 960 653.921, 960.900 651.458, 962 649.500 C 963.100 647.542, 964 645.079, 964 644.029 C 964 642.978, 964.450 641.840, 965 641.500 C 965.550 641.160, 966 639.810, 966 638.500 C 966 637.190, 966.450 635.840, 967 635.500 C 967.550 635.160, 968 633.810, 968 632.500 C 968 631.190, 968.450 629.840, 969 629.500 C 969.550 629.160, 970 627.810, 970 626.500 C 970 625.190, 970.450 623.840, 971 623.500 C 971.550 623.160, 972 621.810, 972 620.500 C 972 619.190, 972.450 617.840, 973 617.500 C 973.550 617.160, 974 615.810, 974 614.500 C 974 613.190, 974.450 611.840, 975 611.500 C 975.550 611.160, 976 610.022, 976 608.971 C 976 607.921, 976.900 605.458, 978 603.500 C 979.100 601.542, 980 599.079, 980 598.029 C 980 596.978, 980.450 595.840, 981 595.500 C 981.550 595.160, 982 593.810, 982 592.500 C 982 591.190, 982.450 589.840, 983 589.500 C 983.550 589.160, 984 587.810, 984 586.500 C 984 585.190, 984.450 583.840, 985 583.500 C 985.550 583.160, 986 581.810, 986 580.500 C 986 579.190, 986.450 577.840, 987 577.500 C 987.550 577.160, 988 575.810, 988 574.500 C 988 573.190, 988.450 571.840, 989 571.500 C 989.550 571.160, 990 569.810, 990 568.500 C 990 567.190, 990.450 565.840, 991 565.500 C 991.550 565.160, 992 564.022, 992 562.971 C 992 561.921, 992.900 559.458, 994 557.500 C 995.100 555.542, 996 553.079, 996 552.029 C 996 550.978, 996.450 549.840, 997 549.500 C 997.550 549.160, 998 547.810, 998 546.500 C 998 545.190, 998.450 543.840, 999 543.500 C 999.550 543.160, 1000 541.810, 1000 540.500 C 1000 539.190, 1000.450 537.840, 1001 537.500 C 1001.550 537.160, 1002 535.810, 1002 534.500 C 1002 533.190, 1002.450 531.840, 1003 531.500 C 1003.550 531.160, 1004 529.810, 1004 528.500 C 1004 527.190, 1004.450 525.840, 1005 525.500 C 1005.550 525.160, 1006 523.810, 1006 522.500 C 1006 521.190, 1006.450 519.840, 1007 519.500 C 1007.550 519.160, 1008 518.022, 1008 516.971 C 1008 515.921, 1008.900 513.458, 1010 511.500 C 1011.100 509.542, 1012 506.842, 1012 505.500 C 1012 504.158, 1012.900 501.458, 1014 499.500 C 1015.100 497.542, 1016 495.079, 1016 494.029 C 1016 492.978, 1016.450 491.840, 1017 491.500 C 1017.550 491.160, 1018 489.810, 1018 488.500 C 1018 487.190, 1018.450 485.840, 1019 485.500 C 1019.550 485.160, 1020 483.810, 1020 482.500 C 1020 481.190, 1020.450 479.840, 1021 479.500 C 1021.550 479.160, 1022 477.810, 1022 476.500 C 1022 475.190, 1022.450 473.840, 1023 473.500 C 1023.550 473.160, 1024 472.022, 1024 470.971 C 1024 469.921, 1024.900 467.458, 1026 465.500 C 1027.100 463.542, 1028 461.079, 1028 460.029 C 1028 458.978, 1028.450 457.840, 1029 457.500 C 1029.550 457.160, 1030 455.810, 1030 454.500 C 1030 453.190, 1030.450 451.840, 1031 451.500 C 1031.550 451.160, 1032 449.810, 1032 448.500 C 1032 447.190, 1032.450 445.840, 1033 445.500 C 1033.550 445.160, 1034 443.810, 1034 442.500 C 1034 441.190, 1034.450 439.840, 1035 439.500 C 1035.550 439.160, 1036 437.810, 1036 436.500 C 1036 435.190, 1036.450 433.840, 1037 433.500 C 1037.550 433.160, 1038 431.810, 1038 430.500 C 1038 429.190, 1038.450 427.840, 1039 427.500 C 1039.550 427.160, 1040 425.810, 1040 424.500 C 1040 423.190, 1040.450 421.840, 1041 421.500 C 1041.550 421.160, 1042 420.022, 1042 418.971 C 1042 417.921, 1042.900 415.458, 1044 413.500 C 1045.100 411.542, 1046 409.079, 1046 408.029 C 1046 406.978, 1046.450 405.840, 1047 405.500 C 1047.550 405.160, 1048 403.810, 1048 402.500 C 1048 401.190, 1048.450 399.840, 1049 399.500 C 1049.550 399.160, 1050 397.810, 1050 396.500 C 1050 395.190, 1050.450 393.840, 1051 393.500 C 1051.550 393.160, 1052 391.810, 1052 390.500 C 1052 389.190, 1052.450 387.840, 1053 387.500 C 1053.550 387.160, 1054 385.334, 1054 383.441 C 1054 381.548, 1054.450 380, 1055 380 C 1055.632 380, 1056 372.984, 1056 360.952 C 1056 343.950, 1055.785 341.459, 1054 337.764 C 1052.900 335.487, 1052 333.227, 1052 332.742 C 1052 328.264, 1030.623 306.353, 1022.014 302.007 C 1018.796 300.382, 968.088 283.049, 909.331 263.489 C 850.574 243.928, 800.145 226.929, 797.267 225.712 C 792.362 223.639, 792.033 223.278, 792.017 219.950 C 792.008 217.997, 791.621 215.972, 791.157 215.450 C 790.693 214.927, 789.534 211.938, 788.582 208.807 C 783.545 192.252, 767.064 175.539, 749.870 169.551 C 746.021 168.211, 724.936 168.034, 573 168.073 C 478.125 168.098, 399.825 168.478, 399 168.918 M 406.120 179.579 C 390.120 183.882, 376.607 195.256, 370.506 209.556 C 367.901 215.663, 366 223.655, 366 228.502 C 366 232.606, 365.779 232.972, 362.750 233.871 C 360.962 234.401, 356.800 235.825, 353.500 237.036 C 350.200 238.246, 308.800 252.278, 261.500 268.217 C 214.200 284.157, 166.500 300.233, 155.500 303.942 C 144.500 307.652, 133.925 311.502, 132 312.497 C 113.034 322.310, 101.182 342.800, 102.208 364 C 102.640 372.910, 106.593 385.363, 132.999 461 C 137.511 473.925, 145.148 495.975, 149.969 510 C 154.790 524.025, 160.166 539.550, 161.915 544.500 C 163.665 549.450, 166.392 557.325, 167.975 562 C 169.558 566.675, 173.153 577.025, 175.963 585 C 178.773 592.975, 183.592 606.925, 186.673 616 C 189.754 625.075, 194.710 639.475, 197.687 648 C 200.664 656.525, 204.845 668.675, 206.978 675 C 209.111 681.325, 214.518 697.075, 218.993 710 C 223.468 722.925, 228.248 736.797, 229.615 740.827 L 232.101 748.153 213.352 767.827 C 203.040 778.647, 159.858 822.375, 117.392 865 C 72.180 910.382, 39.330 944.124, 38.127 946.418 C 33.577 955.094, 34.804 964.066, 40.768 965.736 C 42.271 966.156, 282.900 966.406, 575.500 966.292 L 1107.500 966.084 1109.750 963.486 C 1111.362 961.626, 1112 959.618, 1112 956.411 C 1112 946.396, 1113.925 948.502, 1010.572 845.412 C 940.763 775.781, 914.455 748.936, 915.023 747.912 C 915.455 747.136, 918.142 739.750, 920.994 731.500 C 927.421 712.907, 945.642 660.486, 953.927 636.750 C 956.087 630.563, 961.756 614.250, 966.525 600.500 C 971.295 586.750, 980.135 561.325, 986.171 544 C 992.207 526.675, 999.314 506.200, 1001.966 498.500 C 1004.617 490.800, 1008.676 479.100, 1010.986 472.500 C 1013.297 465.900, 1017.353 454.200, 1020 446.500 C 1022.647 438.800, 1026.703 427.100, 1029.014 420.500 C 1045.374 373.762, 1046 371.562, 1046 360.809 C 1046 341.484, 1035.457 323.971, 1017.481 313.436 C 1013.937 311.359, 955.144 291.313, 805.575 241.183 L 782.651 233.500 780.921 225.500 C 777.877 211.421, 772.067 200.126, 763.851 192.315 C 758.920 187.627, 749.382 182.200, 742.145 179.964 C 735.935 178.045, 732.064 178.002, 573.645 178.066 C 435.445 178.122, 410.705 178.345, 406.120 179.579 M 415.248 211.872 C 407.227 214.655, 403.130 218.669, 400.023 226.788 C 398.015 232.035, 398 233.631, 398.054 438.288 L 398.108 644.500 433.780 608 C 498.445 541.835, 544.298 496.373, 549.202 493.562 C 552.831 491.482, 556.938 490.430, 567.202 488.952 C 583.339 486.629, 584 486.611, 584 488.500 C 584 489.476, 584.978 490, 586.800 490 C 588.340 490, 590.121 490.521, 590.758 491.158 C 591.634 492.034, 592.295 492, 593.482 491.015 C 594.343 490.300, 595.337 490.004, 595.691 490.357 C 596.044 490.711, 595.808 491, 595.167 491 C 594.525 491, 594 491.450, 594 492 C 594 492.550, 594.675 493, 595.500 493 C 596.325 493, 597 493.380, 597 493.844 C 597 494.308, 600.712 497.768, 605.250 501.532 C 609.788 505.297, 627.225 521.910, 644 538.450 C 698.048 591.740, 747.242 639.493, 748.386 639.775 C 749.198 639.976, 749.433 620.888, 749.251 569.275 C 749.114 530.349, 748.889 437.525, 748.751 363 C 748.521 238.653, 748.362 227.209, 746.825 223.961 C 744.693 219.457, 740.621 215.385, 735.513 212.649 L 731.500 210.500 576 210.275 C 427.806 210.060, 420.253 210.135, 415.248 211.872 M 361.814 268.519 C 361.529 268.805, 349.416 273.051, 334.897 277.956 C 320.379 282.861, 288.475 293.690, 264 302.021 C 239.525 310.351, 203.525 322.524, 184 329.071 C 161.594 336.584, 147.053 341.994, 144.576 343.738 C 138.966 347.687, 136.063 353.912, 136.028 362.069 C 136 368.664, 137.887 374.819, 153.790 420 C 155.436 424.675, 160.237 438.400, 164.459 450.500 C 168.681 462.600, 175.212 481.275, 178.973 492 C 191.977 529.085, 220.247 610.576, 227.020 630.500 C 230.759 641.500, 238.752 664.900, 244.781 682.500 C 250.811 700.100, 256.023 715.688, 256.363 717.140 C 256.951 719.646, 257.733 719.015, 271.833 704.640 C 280.001 696.313, 292.043 683.783, 298.592 676.796 C 311.832 662.671, 319.348 656.387, 326.876 653.149 C 333.613 650.250, 342.654 649.372, 348.718 651.027 C 352.694 652.112, 362.409 656.022, 365.250 657.680 C 365.663 657.921, 366 570.341, 366 463.059 C 366 274.578, 365.938 268, 364.167 268 C 363.158 268, 362.100 268.234, 361.814 268.519 M 782 471.441 L 782 675.095 784.750 677.683 C 791.983 684.490, 799.315 690.015, 801.302 690.156 C 805.498 690.452, 808.550 689.863, 817.960 686.939 C 833.473 682.119, 843.126 683.041, 854 690.380 C 856.475 692.050, 865.171 699.961, 873.325 707.959 C 881.479 715.956, 888.309 722.655, 888.502 722.844 C 888.696 723.033, 889.295 721.683, 889.834 719.844 C 890.805 716.529, 898.626 693.908, 913.463 651.500 C 917.697 639.400, 925.133 618.025, 929.988 604 C 934.843 589.975, 941.592 570.625, 944.987 561 C 948.382 551.375, 953.334 537.200, 955.991 529.500 C 958.648 521.800, 965.846 501.100, 971.987 483.500 C 978.128 465.900, 985.778 443.850, 988.987 434.500 C 992.197 425.150, 998.494 407.150, 1002.981 394.500 C 1012.741 366.984, 1013.328 364.787, 1012.473 359.023 C 1011.272 350.925, 1007.199 345.103, 1000.293 341.614 C 998.529 340.722, 968.154 330.338, 932.793 318.537 C 852.754 291.826, 786.054 269.432, 783.750 268.496 C 782.087 267.821, 782 277.880, 782 471.441 M 508.425 586.250 C 480.928 613.888, 445.846 649.325, 430.465 665 C 415.084 680.675, 400.121 695.383, 397.214 697.684 C 386.386 706.257, 377.242 706.679, 357 699.543 C 349.575 696.925, 342.274 694.558, 340.775 694.282 C 336.102 693.422, 330.177 698.039, 313.976 715.168 C 305.480 724.151, 293.759 736.450, 287.929 742.500 C 282.100 748.550, 273.997 757.100, 269.922 761.500 C 265.848 765.900, 256.166 776.025, 248.408 784 C 227.599 805.388, 210 824.261, 210 825.187 C 210 826.563, 213.500 826.094, 218.617 824.032 C 221.302 822.949, 234.525 818.041, 248 813.124 C 261.475 808.208, 273.625 803.714, 275 803.137 C 276.375 802.561, 290.775 797.135, 307 791.080 C 323.225 785.025, 341.225 778.262, 347 776.051 C 352.775 773.840, 358.108 772.024, 358.851 772.015 C 361.075 771.990, 359.863 778.263, 351.025 812.500 C 339.903 855.590, 339.590 856.990, 340.823 858.223 C 341.531 858.931, 343.993 858.068, 348.677 855.472 C 362.432 847.849, 434.369 805.763, 485.816 775.239 C 501.076 766.186, 512.063 760.322, 515.316 759.495 C 521 758.050, 535.845 756, 540.628 756 C 542.486 756, 544.446 755.133, 545.713 753.750 C 546.847 752.513, 553.276 741.375, 560 729 C 566.723 716.625, 574.330 702.675, 576.903 698 C 582.911 687.086, 584.179 684.098, 583.363 682.779 C 582.680 681.674, 541.940 682.392, 535.250 683.627 C 532.162 684.197, 532 684.075, 532 681.173 C 532 679.494, 537.659 663.832, 544.575 646.369 C 578.822 559.903, 576.739 566.522, 576.236 545.750 L 576 536 567.210 536 L 558.419 536 508.425 586.250" stroke="none" fill="#052842" fill-rule="evenodd"/><path d="M 399 168.918 C 398.175 169.359, 394.010 171.355, 389.745 173.354 C 372.111 181.619, 356.064 203.371, 356.015 219.080 L 356 223.660 342.750 227.950 C 335.462 230.309, 328.600 232.612, 327.500 233.068 C 326.400 233.524, 322.350 234.879, 318.500 236.080 C 314.650 237.280, 310.600 238.624, 309.500 239.065 C 308.400 239.507, 305.700 240.410, 303.500 241.072 C 301.300 241.735, 298.600 242.640, 297.500 243.083 C 296.400 243.526, 291.675 245.215, 287 246.837 C 273.636 251.472, 271.615 252.211, 269.764 253.134 C 268.809 253.610, 267.103 254, 265.974 254 C 264.844 254, 262.251 254.817, 260.210 255.815 C 258.170 256.813, 250.425 259.560, 243 261.918 C 235.575 264.277, 228.719 266.610, 227.764 267.103 C 226.809 267.596, 225.211 268, 224.214 268 C 223.216 268, 221.972 268.369, 221.450 268.819 C 220.927 269.270, 215.775 271.124, 210 272.939 C 204.225 274.754, 198.600 276.621, 197.500 277.088 C 196.400 277.555, 181.179 282.686, 163.675 288.491 C 146.172 294.297, 129.072 300.444, 125.675 302.152 C 117.248 306.389, 102.385 321.256, 98.144 329.691 C 92.459 340.997, 92.030 343.181, 92.015 360.929 C 92.007 369.965, 92.415 378.740, 92.921 380.429 C 96.695 393.004, 102.414 410.340, 104.161 414.500 C 107.075 421.435, 107.456 422.503, 110.061 431 C 111.326 435.125, 112.729 438.927, 113.180 439.450 C 113.631 439.972, 114 441.216, 114 442.214 C 114 443.211, 114.399 444.809, 114.887 445.764 C 115.375 446.719, 117.215 451.775, 118.977 457 C 120.738 462.225, 125.235 475.275, 128.970 486 C 132.705 496.725, 136.222 506.850, 136.786 508.500 C 137.350 510.150, 138.358 513.075, 139.026 515 C 139.694 516.925, 143.362 527.725, 147.178 539 C 150.995 550.275, 154.991 561.408, 156.058 563.739 C 157.126 566.071, 158 569.018, 158 570.289 C 158 571.560, 158.413 573.027, 158.918 573.550 C 159.423 574.072, 163.884 586.425, 168.833 601 C 173.781 615.575, 181.424 637.850, 185.816 650.500 C 190.209 663.150, 194.783 676.425, 195.982 680 C 197.180 683.575, 198.625 687.850, 199.193 689.500 C 199.761 691.150, 201.997 697.675, 204.162 704 C 206.326 710.325, 208.472 716.400, 208.930 717.500 C 209.387 718.600, 210.798 722.875, 212.065 727 C 213.332 731.125, 215.212 736.222, 216.243 738.326 C 217.275 740.430, 217.979 743.288, 217.809 744.676 C 217.476 747.394, 196.540 768.945, 88.855 877.418 C 42.123 924.492, 28.646 938.629, 26.605 942.717 C 24.414 947.104, 24.006 949.250, 24.035 956.217 C 24.055 960.827, 24.609 965.432, 25.285 966.602 C 27.558 970.536, 31.687 974.787, 34.798 976.395 C 37.635 977.862, 83.771 977.999, 572.700 977.985 C 1010.837 977.973, 1108.179 977.733, 1111.259 976.661 C 1113.327 975.941, 1116.590 973.961, 1118.509 972.261 L 1122 969.171 1122 956.536 C 1122 947.605, 1121.586 943.099, 1120.587 941.168 C 1119.459 938.986, 1092.956 911.765, 1047 865.586 C 1045.075 863.651, 1017.415 836.186, 985.532 804.552 C 939.980 759.354, 927.826 746.774, 928.782 745.818 C 929.452 745.148, 930 743.592, 930 742.359 C 930 741.126, 930.450 739.840, 931 739.500 C 931.550 739.160, 932 737.810, 932 736.500 C 932 735.190, 932.450 733.840, 933 733.500 C 933.550 733.160, 934 731.810, 934 730.500 C 934 729.190, 934.450 727.840, 935 727.500 C 935.550 727.160, 936 725.810, 936 724.500 C 936 723.190, 936.450 721.840, 937 721.500 C 937.550 721.160, 938 719.810, 938 718.500 C 938 717.190, 938.450 715.840, 939 715.500 C 939.550 715.160, 940 713.810, 940 712.500 C 940 711.190, 940.450 709.840, 941 709.500 C 941.550 709.160, 942 708.022, 942 706.971 C 942 705.921, 942.900 703.458, 944 701.500 C 945.100 699.542, 946 697.079, 946 696.029 C 946 694.978, 946.450 693.840, 947 693.500 C 947.550 693.160, 948 691.810, 948 690.500 C 948 689.190, 948.450 687.840, 949 687.500 C 949.550 687.160, 950 685.810, 950 684.500 C 950 683.190, 950.450 681.840, 951 681.500 C 951.550 681.160, 952 679.810, 952 678.500 C 952 677.190, 952.450 675.840, 953 675.500 C 953.550 675.160, 954 673.810, 954 672.500 C 954 671.190, 954.450 669.840, 955 669.500 C 955.550 669.160, 956 667.810, 956 666.500 C 956 665.190, 956.450 663.840, 957 663.500 C 957.550 663.160, 958 661.810, 958 660.500 C 958 659.190, 958.450 657.840, 959 657.500 C 959.550 657.160, 960 656.022, 960 654.971 C 960 653.921, 960.900 651.458, 962 649.500 C 963.100 647.542, 964 645.079, 964 644.029 C 964 642.978, 964.450 641.840, 965 641.500 C 965.550 641.160, 966 639.810, 966 638.500 C 966 637.190, 966.450 635.840, 967 635.500 C 967.550 635.160, 968 633.810, 968 632.500 C 968 631.190, 968.450 629.840, 969 629.500 C 969.550 629.160, 970 627.810, 970 626.500 C 970 625.190, 970.450 623.840, 971 623.500 C 971.550 623.160, 972 621.810, 972 620.500 C 972 619.190, 972.450 617.840, 973 617.500 C 973.550 617.160, 974 615.810, 974 614.500 C 974 613.190, 974.450 611.840, 975 611.500 C 975.550 611.160, 976 610.022, 976 608.971 C 976 607.921, 976.900 605.458, 978 603.500 C 979.100 601.542, 980 599.079, 980 598.029 C 980 596.978, 980.450 595.840, 981 595.500 C 981.550 595.160, 982 593.810, 982 592.500 C 982 591.190, 982.450 589.840, 983 589.500 C 983.550 589.160, 984 587.810, 984 586.500 C 984 585.190, 984.450 583.840, 985 583.500 C 985.550 583.160, 986 581.810, 986 580.500 C 986 579.190, 986.450 577.840, 987 577.500 C 987.550 577.160, 988 575.810, 988 574.500 C 988 573.190, 988.450 571.840, 989 571.500 C 989.550 571.160, 990 569.810, 990 568.500 C 990 567.190, 990.450 565.840, 991 565.500 C 991.550 565.160, 992 564.022, 992 562.971 C 992 561.921, 992.900 559.458, 994 557.500 C 995.100 555.542, 996 553.079, 996 552.029 C 996 550.978, 996.450 549.840, 997 549.500 C 997.550 549.160, 998 547.810, 998 546.500 C 998 545.190, 998.450 543.840, 999 543.500 C 999.550 543.160, 1000 541.810, 1000 540.500 C 1000 539.190, 1000.450 537.840, 1001 537.500 C 1001.550 537.160, 1002 535.810, 1002 534.500 C 1002 533.190, 1002.450 531.840, 1003 531.500 C 1003.550 531.160, 1004 529.810, 1004 528.500 C 1004 527.190, 1004.450 525.840, 1005 525.500 C 1005.550 525.160, 1006 523.810, 1006 522.500 C 1006 521.190, 1006.450 519.840, 1007 519.500 C 1007.550 519.160, 1008 518.022, 1008 516.971 C 1008 515.921, 1008.900 513.458, 1010 511.500 C 1011.100 509.542, 1012 506.842, 1012 505.500 C 1012 504.158, 1012.900 501.458, 1014 499.500 C 1015.100 497.542, 1016 495.079, 1016 494.029 C 1016 492.978, 1016.450 491.840, 1017 491.500 C 1017.550 491.160, 1018 489.810, 1018 488.500 C 1018 487.190, 1018.450 485.840, 1019 485.500 C 1019.550 485.160, 1020 483.810, 1020 482.500 C 1020 481.190, 1020.450 479.840, 1021 479.500 C 1021.550 479.160, 1022 477.810, 1022 476.500 C 1022 475.190, 1022.450 473.840, 1023 473.500 C 1023.550 473.160, 1024 472.022, 1024 470.971 C 1024 469.921, 1024.900 467.458, 1026 465.500 C 1027.100 463.542, 1028 461.079, 1028 460.029 C 1028 458.978, 1028.450 457.840, 1029 457.500 C 1029.550 457.160, 1030 455.810, 1030 454.500 C 1030 453.190, 1030.450 451.840, 1031 451.500 C 1031.550 451.160, 1032 449.810, 1032 448.500 C 1032 447.190, 1032.450 445.840, 1033 445.500 C 1033.550 445.160, 1034 443.810, 1034 442.500 C 1034 441.190, 1034.450 439.840, 1035 439.500 C 1035.550 439.160, 1036 437.810, 1036 436.500 C 1036 435.190, 1036.450 433.840, 1037 433.500 C 1037.550 433.160, 1038 431.810, 1038 430.500 C 1038 429.190, 1038.450 427.840, 1039 427.500 C 1039.550 427.160, 1040 425.810, 1040 424.500 C 1040 423.190, 1040.450 421.840, 1041 421.500 C 1041.550 421.160, 1042 420.022, 1042 418.971 C 1042 417.921, 1042.900 415.458, 1044 413.500 C 1045.100 411.542, 1046 409.079, 1046 408.029 C 1046 406.978, 1046.450 405.840, 1047 405.500 C 1047.550 405.160, 1048 403.810, 1048 402.500 C 1048 401.190, 1048.450 399.840, 1049 399.500 C 1049.550 399.160, 1050 397.810, 1050 396.500 C 1050 395.190, 1050.450 393.840, 1051 393.500 C 1051.550 393.160, 1052 391.810, 1052 390.500 C 1052 389.190, 1052.450 387.840, 1053 387.500 C 1053.550 387.160, 1054 385.334, 1054 383.441 C 1054 381.548, 1054.450 380, 1055 380 C 1055.632 380, 1056 372.984, 1056 360.952 C 1056 343.950, 1055.785 341.459, 1054 337.764 C 1052.900 335.487, 1052 333.227, 1052 332.742 C 1052 328.264, 1030.623 306.353, 1022.014 302.007 C 1018.796 300.382, 968.088 283.049, 909.331 263.489 C 850.574 243.928, 800.145 226.929, 797.267 225.712 C 792.362 223.639, 792.033 223.278, 792.017 219.950 C 792.008 217.997, 791.621 215.972, 791.157 215.450 C 790.693 214.927, 789.534 211.938, 788.582 208.807 C 783.545 192.252, 767.064 175.539, 749.870 169.551 C 746.021 168.211, 724.936 168.034, 573 168.073 C 478.125 168.098, 399.825 168.478, 399 168.918 M 406.120 179.579 C 390.120 183.882, 376.607 195.256, 370.506 209.556 C 367.901 215.663, 366 223.655, 366 228.502 C 366 232.606, 365.779 232.972, 362.750 233.871 C 360.962 234.401, 356.800 235.825, 353.500 237.036 C 350.200 238.246, 308.800 252.278, 261.500 268.217 C 214.200 284.157, 166.500 300.233, 155.500 303.942 C 144.500 307.652, 133.925 311.502, 132 312.497 C 113.034 322.310, 101.182 342.800, 102.208 364 C 102.640 372.910, 106.593 385.363, 132.999 461 C 137.511 473.925, 145.148 495.975, 149.969 510 C 154.790 524.025, 160.166 539.550, 161.915 544.500 C 163.665 549.450, 166.392 557.325, 167.975 562 C 169.558 566.675, 173.153 577.025, 175.963 585 C 178.773 592.975, 183.592 606.925, 186.673 616 C 189.754 625.075, 194.710 639.475, 197.687 648 C 200.664 656.525, 204.845 668.675, 206.978 675 C 209.111 681.325, 214.518 697.075, 218.993 710 C 223.468 722.925, 228.248 736.797, 229.615 740.827 L 232.101 748.153 213.352 767.827 C 203.040 778.647, 159.858 822.375, 117.392 865 C 72.180 910.382, 39.330 944.124, 38.127 946.418 C 33.577 955.094, 34.804 964.066, 40.768 965.736 C 42.271 966.156, 282.900 966.406, 575.500 966.292 L 1107.500 966.084 1109.750 963.486 C 1111.362 961.626, 1112 959.618, 1112 956.411 C 1112 946.396, 1113.925 948.502, 1010.572 845.412 C 940.763 775.781, 914.455 748.936, 915.023 747.912 C 915.455 747.136, 918.142 739.750, 920.994 731.500 C 927.421 712.907, 945.642 660.486, 953.927 636.750 C 956.087 630.563, 961.756 614.250, 966.525 600.500 C 971.295 586.750, 980.135 561.325, 986.171 544 C 992.207 526.675, 999.314 506.200, 1001.966 498.500 C 1004.617 490.800, 1008.676 479.100, 1010.986 472.500 C 1013.297 465.900, 1017.353 454.200, 1020 446.500 C 1022.647 438.800, 1026.703 427.100, 1029.014 420.500 C 1045.374 373.762, 1046 371.562, 1046 360.809 C 1046 341.484, 1035.457 323.971, 1017.481 313.436 C 1013.937 311.359, 955.144 291.313, 805.575 241.183 L 782.651 233.500 780.921 225.500 C 777.877 211.421, 772.067 200.126, 763.851 192.315 C 758.920 187.627, 749.382 182.200, 742.145 179.964 C 735.935 178.045, 732.064 178.002, 573.645 178.066 C 435.445 178.122, 410.705 178.345, 406.120 179.579 M 415.248 211.872 C 407.227 214.655, 403.130 218.669, 400.023 226.788 C 398.015 232.035, 398 233.631, 398.054 438.288 L 398.108 644.500 433.780 608 C 498.445 541.835, 544.298 496.373, 549.202 493.562 C 552.831 491.482, 556.938 490.430, 567.202 488.952 C 583.339 486.629, 584 486.611, 584 488.500 C 584 489.476, 584.978 490, 586.800 490 C 588.340 490, 590.140 490.540, 590.800 491.200 C 591.733 492.133, 592.267 492.133, 593.200 491.200 C 594.954 489.446, 595.712 489.715, 596.366 492.322 C 596.687 493.599, 600.673 497.734, 605.224 501.511 C 609.776 505.287, 627.225 521.910, 644 538.450 C 698.048 591.740, 747.242 639.493, 748.386 639.775 C 749.198 639.976, 749.433 620.888, 749.251 569.275 C 749.114 530.349, 748.889 437.525, 748.751 363 C 748.521 238.653, 748.362 227.209, 746.825 223.961 C 744.693 219.457, 740.621 215.385, 735.513 212.649 L 731.500 210.500 576 210.275 C 427.806 210.060, 420.253 210.135, 415.248 211.872 M 361.814 268.519 C 361.529 268.805, 349.416 273.051, 334.897 277.956 C 320.379 282.861, 288.475 293.690, 264 302.021 C 239.525 310.351, 203.525 322.524, 184 329.071 C 161.594 336.584, 147.053 341.994, 144.576 343.738 C 138.966 347.687, 136.063 353.912, 136.028 362.069 C 136 368.664, 137.887 374.819, 153.790 420 C 155.436 424.675, 160.237 438.400, 164.459 450.500 C 168.681 462.600, 175.212 481.275, 178.973 492 C 191.977 529.085, 220.247 610.576, 227.020 630.500 C 230.759 641.500, 238.752 664.900, 244.781 682.500 C 250.811 700.100, 256.023 715.688, 256.363 717.140 C 256.951 719.646, 257.733 719.015, 271.833 704.640 C 280.001 696.313, 292.043 683.783, 298.592 676.796 C 311.832 662.671, 319.348 656.387, 326.876 653.149 C 333.613 650.250, 342.654 649.372, 348.718 651.027 C 352.694 652.112, 362.409 656.022, 365.250 657.680 C 365.663 657.921, 366 570.341, 366 463.059 C 366 274.578, 365.938 268, 364.167 268 C 363.158 268, 362.100 268.234, 361.814 268.519 M 782 471.441 L 782 675.095 784.750 677.683 C 791.983 684.490, 799.315 690.015, 801.302 690.156 C 805.498 690.452, 808.550 689.863, 817.960 686.939 C 833.473 682.119, 843.126 683.041, 854 690.380 C 856.475 692.050, 865.171 699.961, 873.325 707.959 C 881.479 715.956, 888.309 722.655, 888.502 722.844 C 888.696 723.033, 889.295 721.683, 889.834 719.844 C 890.805 716.529, 898.626 693.908, 913.463 651.500 C 917.697 639.400, 925.133 618.025, 929.988 604 C 934.843 589.975, 941.592 570.625, 944.987 561 C 948.382 551.375, 953.334 537.200, 955.991 529.500 C 958.648 521.800, 965.846 501.100, 971.987 483.500 C 978.128 465.900, 985.778 443.850, 988.987 434.500 C 992.197 425.150, 998.494 407.150, 1002.981 394.500 C 1012.741 366.984, 1013.328 364.787, 1012.473 359.023 C 1011.272 350.925, 1007.199 345.103, 1000.293 341.614 C 998.529 340.722, 968.154 330.338, 932.793 318.537 C 852.754 291.826, 786.054 269.432, 783.750 268.496 C 782.087 267.821, 782 277.880, 782 471.441 M 508.425 586.250 C 480.928 613.888, 445.846 649.325, 430.465 665 C 415.084 680.675, 400.121 695.383, 397.214 697.684 C 386.386 706.257, 377.242 706.679, 357 699.543 C 349.575 696.925, 342.274 694.558, 340.775 694.282 C 336.102 693.422, 330.177 698.039, 313.976 715.168 C 305.480 724.151, 293.759 736.450, 287.929 742.500 C 282.100 748.550, 273.997 757.100, 269.922 761.500 C 265.848 765.900, 256.166 776.025, 248.408 784 C 227.599 805.388, 210 824.261, 210 825.187 C 210 826.563, 213.500 826.094, 218.617 824.032 C 221.302 822.949, 234.525 818.041, 248 813.124 C 261.475 808.208, 273.625 803.714, 275 803.137 C 276.375 802.561, 290.775 797.135, 307 791.080 C 323.225 785.025, 341.225 778.262, 347 776.051 C 352.775 773.840, 358.108 772.024, 358.851 772.015 C 361.075 771.990, 359.863 778.263, 351.025 812.500 C 339.903 855.590, 339.590 856.990, 340.823 858.223 C 341.531 858.931, 343.993 858.068, 348.677 855.472 C 362.432 847.849, 434.369 805.763, 485.816 775.239 C 501.076 766.186, 512.063 760.322, 515.316 759.495 C 521 758.050, 535.845 756, 540.628 756 C 542.486 756, 544.446 755.133, 545.713 753.750 C 546.847 752.513, 553.276 741.375, 560 729 C 566.723 716.625, 574.330 702.675, 576.903 698 C 582.911 687.086, 584.179 684.098, 583.363 682.779 C 582.680 681.674, 541.940 682.392, 535.250 683.627 C 532.162 684.197, 532 684.075, 532 681.173 C 532 679.494, 537.659 663.832, 544.575 646.369 C 578.822 559.903, 576.739 566.522, 576.236 545.750 L 576 536 567.210 536 L 558.419 536 508.425 586.250" stroke="none" fill="#fbfbfb" fill-rule="evenodd"/></svg>